<?xml version="1.0" encoding="UTF-8"?><svg id="Layer_2" xmlns="http://www.w3.org/2000/svg" viewBox="0 0 1249.67 150"><g id="Layer_1-2"><path d="M178.94,105.3l-.81-3.76c-1.21-5.1,1.48-8.73,5.64-8.73,3.62,0,5.64,2.55,6.31,5.91l.81,4.03c1.61,8.06,6.85,10.88,13.02,10.88,7.25,0,13.43-3.89,13.43-12.89,0-6.71-3.49-11.55-6.98-14.37l-17.45-14.5c-5.64-4.56-12.22-10.61-12.22-22.42,0-14.23,9.67-24.03,24.84-24.03s24.17,10.61,24.17,20.14v.81c0,2.82-2.01,5.5-5.91,5.5s-5.37-2.69-6.31-5.77l-.54-1.34c-1.61-5.37-5.91-8.19-11.41-8.19-7.12,0-12.49,4.43-12.49,12.49,0,5.77,2.82,9.53,5.77,11.95l21.75,17.99c2.68,2.28,9.13,8.59,9.13,20.94,0,15.31-10.07,24.84-25.64,24.84s-22.82-9.8-25.11-19.47Z" fill="#fff" stroke-width="0"/><path d="M244.46,49.85c0-13.96,10.2-24.44,26.05-24.44s26.05,10.47,26.05,24.44v50.62c0,13.83-10.2,24.3-26.05,24.3s-26.05-10.47-26.05-24.3v-50.62ZM257.08,50.52v49.14c0,9.53,6.71,13.69,13.43,13.69s13.43-4.16,13.43-13.69v-49.14c0-9.4-6.71-13.69-13.43-13.69s-13.43,4.3-13.43,13.69Z" fill="#fff" stroke-width="0"/><path d="M366.23,100.06c0,13.96-9.94,24.7-26.18,24.7s-26.18-10.74-26.18-24.7V31.59c0-2.82,2.15-6.18,6.31-6.18s6.31,3.36,6.31,6.18v67.8c0,9.67,6.04,13.96,13.56,13.96s13.56-4.3,13.56-13.96V31.59c0-2.82,2.01-6.18,6.18-6.18,4.43,0,6.44,3.36,6.44,6.18v68.47Z" fill="#fff" stroke-width="0"/><path d="M425.31,26.75c3.76,0,5.91,2.69,5.91,5.64s-2.15,5.77-5.91,5.77h-15.44v80.42c0,2.82-2.15,6.18-6.44,6.18-4.03,0-6.18-3.36-6.18-6.18V38.16h-15.44c-3.76,0-5.91-2.82-5.91-5.64,0-3.09,2.15-5.77,5.91-5.77h43.5Z" fill="#fff" stroke-width="0"/><path d="M495.93,118.59c0,2.82-2.15,6.18-6.31,6.18s-6.31-3.36-6.31-6.18v-38.26h-29.13v38.26c0,2.82-2.15,6.18-6.45,6.18-4.03,0-6.18-3.36-6.18-6.18V31.59c0-2.82,2.15-6.18,6.18-6.18,4.3,0,6.45,3.36,6.45,6.18v37.19h29.13V31.59c0-2.82,2.15-6.18,6.31-6.18s6.31,3.36,6.31,6.18v87Z" fill="#fff" stroke-width="0"/><path d="M511.91,105.3l-.81-3.76c-1.21-5.1,1.48-8.73,5.64-8.73,3.63,0,5.64,2.55,6.31,5.91l.81,4.03c1.61,8.06,6.85,10.88,13.02,10.88,7.25,0,13.43-3.89,13.43-12.89,0-6.71-3.49-11.55-6.98-14.37l-17.45-14.5c-5.64-4.56-12.22-10.61-12.22-22.42,0-14.23,9.67-24.03,24.84-24.03s24.17,10.61,24.17,20.14v.81c0,2.82-2.01,5.5-5.91,5.5s-5.37-2.69-6.31-5.77l-.54-1.34c-1.61-5.37-5.91-8.19-11.41-8.19-7.12,0-12.49,4.43-12.49,12.49,0,5.77,2.82,9.53,5.77,11.95l21.75,17.99c2.69,2.28,9.13,8.59,9.13,20.94,0,15.31-10.07,24.84-25.64,24.84s-22.83-9.8-25.11-19.47Z" fill="#fff" stroke-width="0"/><path d="M591.66,118.59c0,2.82-2.15,6.18-6.45,6.18-4.03,0-6.18-3.36-6.18-6.18V31.59c0-2.82,2.15-6.18,6.18-6.18,4.3,0,6.45,3.36,6.45,6.18v87Z" fill="#fff" stroke-width="0"/><path d="M618.91,123.42c-4.3,0-6.44-3.22-6.44-6.04V32.79c0-2.82,2.15-6.04,6.44-6.04h19.6c15.17,0,26.05,10.47,26.05,24.44v47.8c0,13.96-10.88,24.44-26.05,24.44h-19.6ZM638.51,112.01c6.71,0,13.43-4.16,13.43-13.69v-46.32c0-9.53-6.71-13.83-13.43-13.83h-13.43v73.84h13.43Z" fill="#fff" stroke-width="0"/><path d="M682.55,32.79c0-2.82,2.15-6.04,6.44-6.04h34.37c3.89,0,6.04,2.69,6.04,5.64s-2.15,5.77-6.04,5.77h-28.19v30.61h20.94c3.89,0,6.04,2.82,6.04,5.77s-2.15,5.64-6.04,5.64h-20.94v31.82h28.19c3.89,0,6.04,2.82,6.04,5.64,0,3.09-2.15,5.77-6.04,5.77h-34.37c-4.3,0-6.44-3.22-6.44-6.04V32.79Z" fill="#fff" stroke-width="0"/><path d="M812.11,96.57c0-2.82,2.01-6.18,6.18-6.18s6.44,3.36,6.44,6.18v3.89c0,13.83-10.34,24.3-26.18,24.3s-26.05-10.47-26.05-24.3v-50.62c0-13.96,10.2-24.44,26.18-24.44s24.57,10.61,24.57,20v.81c0,2.82-2.28,5.64-6.18,5.64s-5.64-2.82-6.58-5.91l-.4-1.34c-1.48-5.1-5.5-7.79-11.28-7.79-7.25,0-13.69,4.43-13.69,13.69v49.14c0,9.53,6.71,13.69,13.43,13.69s13.56-4.16,13.56-13.69v-3.09Z" fill="#fff" stroke-width="0"/><path d="M845.95,123.42c-4.03,0-6.18-2.95-6.18-5.91V31.59c0-2.82,2.15-6.18,6.18-6.18,4.3,0,6.44,3.36,6.44,6.18v80.42h25.78c3.76,0,5.91,2.82,5.91,5.64,0,3.09-2.15,5.77-5.91,5.77h-32.22Z" fill="#fff" stroke-width="0"/><path d="M909.59,118.59c0,2.82-2.15,6.18-6.44,6.18-4.03,0-6.18-3.36-6.18-6.18V31.59c0-2.82,2.15-6.18,6.18-6.18,4.3,0,6.44,3.36,6.44,6.18v87Z" fill="#fff" stroke-width="0"/><path d="M990.01,96.7c.13-22.15.27-26.32,1.21-41.62h-.67c-1.48,5.77-6.85,20-9,25.64l-8.59,23.76c-1.61,4.03-4.3,4.56-6.58,4.56-2.15,0-4.97-.54-6.44-4.56l-8.73-23.76c-.8-2.28-7.65-20.14-9-25.64h-.67c1.07,14.37,1.34,27.52,1.34,41.62l.13,21.88c0,2.82-2.01,6.18-6.44,6.18-4.16,0-6.18-3.36-6.18-6.18V33.6c0-5.1,2.15-8.19,6.45-8.19,3.49,0,6.18,2.15,7.79,6.18l21.35,57.2h.81l21.48-57.2c1.61-4.03,4.16-6.18,7.65-6.18,4.43,0,6.58,3.09,6.58,8.19v84.99c0,2.82-2.15,6.18-6.44,6.18-4.03,0-6.18-3.36-6.18-6.18l.13-21.88Z" fill="#fff" stroke-width="0"/><path d="M1029.75,123.42c-4.3,0-6.45-3.22-6.45-6.04V32.79c0-2.82,2.15-6.04,6.45-6.04h15.04c17.45,0,29.81,10.34,29.81,24.03v1.21c0,8.32-4.97,16.65-14.23,20.27,11.68,4.7,15.57,13.96,15.57,22.96v1.07c0,15.57-12.22,27.12-29.67,27.12h-16.51ZM1044.79,67.97c8.73,0,17.19-4.43,17.19-14.5v-.81c0-10.07-8.46-14.5-17.19-14.5h-9v29.81h9ZM1046.27,112.01c8.73,0,17.05-5.5,17.05-16.51v-.81c0-11.01-8.46-15.17-17.05-15.17h-10.47v32.49h10.47Z" fill="#fff" stroke-width="0"/><path d="M1104.54,118.59c0,2.82-2.15,6.18-6.44,6.18-4.03,0-6.18-3.36-6.18-6.18V31.59c0-2.82,2.15-6.18,6.18-6.18,4.3,0,6.44,3.36,6.44,6.18v87Z" fill="#fff" stroke-width="0"/><path d="M1166.97,31.59c0-2.82,2.15-6.18,6.44-6.18,4.03,0,6.18,3.36,6.18,6.18v84.99c0,4.97-2.15,8.19-6.31,8.19-3.09,0-5.64-1.75-7.38-5.91l-28.6-62.7h-.67c.81,10.74,1.34,21.35,1.34,30.34v32.09c0,2.82-2.15,6.18-6.44,6.18-4.03,0-6.18-3.36-6.18-6.18V33.6c0-5.1,2.15-8.19,6.31-8.19,3.09,0,5.5,1.75,7.38,6.18l28.6,62.3h.67c-.81-10.74-1.34-20.94-1.34-29.94V31.59Z" fill="#fff" stroke-width="0"/><path d="M1243.5,71.06c4.03,0,6.18,2.95,6.18,5.91v23.5c0,13.83-10.2,24.3-25.91,24.3s-26.18-10.47-26.18-24.3v-50.62c0-13.96,10.07-24.44,25.91-24.44s24.84,10.61,24.84,20v.81c0,2.82-2.15,5.64-6.31,5.64s-5.37-2.69-6.31-5.91l-.4-1.34c-1.61-4.97-5.64-7.79-11.55-7.79-6.85,0-13.56,4.43-13.56,13.83v48.87c0,9.4,6.58,13.83,13.43,13.83s13.43-4.43,13.43-13.83v-17.19h-9.67c-3.22-.13-5.24-2.69-5.24-5.64s2.15-5.64,5.91-5.64h15.44Z" fill="#fff" stroke-width="0"/><path d="M137.42,116.6c-1.64,2.45-3.42,4.8-5.33,7.04-5.91,6.94-13.07,12.78-21.12,17.19-3.37,1.85-6.88,3.44-10.54,4.75h0c-7.94,2.86-16.5,4.42-25.43,4.42-25.14,0-47.39-12.37-60.99-31.35-1.93-2.69-3.68-5.51-5.25-8.45-2.49-4.67-4.5-9.64-5.96-14.84-.5-1.78-.94-3.6-1.31-5.44,11.77-5.58,22.86-12.43,33.04-20.61,3.87-3.06,7.82-6.28,12.1-9.15,4.26-2.87,8.74-5.38,13.36-7.62,6.37-3.05,13.41-5.88,20.66-6.45,5.32-.38,10.68.11,15.86,1.39,2.08.51,4.12,1.15,6.12,1.92,1.09.42,2.16.87,3.22,1.35,1.97.82,2.49,3.53.99,5.03-1.45,1.49-2.78,3.07-4,4.73-6,8.13-9.22,18.14-8.91,28.26.13,9.18,2.56,19.43,10.48,24.93,5.94,4.14,13.06,4.25,20.4,3.94,4.2-.22,8.42-.53,12.61-1.05Z" fill="#fff" stroke-width="0"/><path d="M8.76,110.2c-2.49-4.67-4.5-9.64-5.96-14.84,10.28-4.6,20.12-10.27,29.27-16.86,7.51-5.44,14.21-11.95,22.3-16.51,5.22-3.06,10.84-5.53,16.66-7.11,6.1-1.73,12.47-2.43,18.76-1.56.03,0,.07,0,.1.01-8.18,6.42-14.83,14.65-19.73,23.79-2.61,4.75-4.89,9.71-6.36,14.92-2.15,7.65-3.35,15.59-3.6,23.52-.06-.03-.13-.06-.19-.09-2.04-.92-12.63-5.64-22.19-7.4-10.48-1.92-20.55-.45-29.05,2.12Z" fill="#0ca3dd" stroke-width="0"/><path d="M83.38,139.59c3.09,1.54,8.18,3.57,17.05,5.99-7.94,2.86-16.5,4.42-25.43,4.42-25.14,0-47.39-12.37-60.99-31.35.14-.01.28-.02.42-.04,5.77-.53,11.01-.97,17.99,0,8.05,1.12,14.38,3.58,17.99,5,3.58,1.41,6.72,2.94,12.99,6,2.19,1.07,2.94,1.46,9.99,4.99,5.23,2.62,9.54,4.77,9.99,5Z" fill="#0ca3dd" stroke-width="0"/><path d="M131.51,124.31c-5.77,6.61-12.67,12.19-20.41,16.45-.09.05-.19.06-.28.03-14.46-4.27-24.54-9.62-31.5-14.21-2.4-1.58-5.92-4.06-10.83-6.82l-.19-.32c-.13-11.15,1.89-24.06,7.4-33.91,4.12-7.18,9.11-14.04,15.6-19.15.3-.23.71.08.56.43-1.93,4.41-3.25,9.08-3.81,13.87-1.57,13.55.84,29.77,12.72,38.19,7.01,5.08,16.08,5.6,24.34,5.2,2.05-.11,4.08-.23,6.11-.38.32-.02.52.36.3.6Z" fill="#0097d9" stroke-width="0"/><path d="M150,75c0,15.39-4.64,29.7-12.58,41.6-4.19.52-8.41.83-12.61,1.05-7.34.31-14.46.21-20.4-3.94-7.93-5.5-10.35-15.75-10.48-24.93-.31-10.11,2.91-20.12,8.91-28.26,1.22-1.66,2.56-3.24,4-4.73,1.5-1.51.97-4.21-.99-5.03-1.06-.48-2.13-.94-3.22-1.35-1.99-.76-4.04-1.41-6.12-1.92-5.17-1.28-10.54-1.78-15.86-1.39-7.25.58-14.29,3.4-20.66,6.45-4.62,2.24-9.1,4.75-13.36,7.62-4.29,2.87-8.24,6.09-12.1,9.15-10.18,8.17-21.27,15.02-33.04,20.61-.98-4.82-1.49-9.82-1.49-14.93C0,33.58,33.58,0,75,0s75,33.58,75,75Z" fill="#ff73a9" stroke-width="0"/></g></svg>