<?xml version="1.0" standalone="no"?>
<!DOCTYPE svg PUBLIC "-//W3C//DTD SVG 20010904//EN"
 "http://www.w3.org/TR/2001/REC-SVG-20010904/DTD/svg10.dtd">
<svg version="1.0" xmlns="http://www.w3.org/2000/svg"
 width="700.000000pt" height="700.000000pt" viewBox="0 0 700.000000 700.000000"
 preserveAspectRatio="xMidYMid meet">
<metadata>
Created by potrace 1.14, written by Peter Selinger 2001-2017
</metadata>
<g transform="translate(0.000000,700.000000) scale(0.100000,-0.100000)"
fill="#000000" stroke="none">
<path d="M3278 6995 c-1 -1 -41 -6 -88 -9 -47 -4 -101 -9 -120 -12 -37 -5
-153 -22 -205 -30 -158 -25 -552 -139 -670 -193 -11 -6 -54 -24 -95 -42 -41
-17 -105 -47 -142 -65 -38 -19 -71 -35 -75 -36 -5 -1 -42 -22 -83 -46 -41 -25
-91 -54 -110 -65 -33 -18 -232 -150 -254 -168 -6 -5 -49 -39 -96 -76 -217
-170 -453 -408 -610 -613 -19 -25 -38 -49 -43 -55 -72 -91 -214 -317 -293
-470 -114 -218 -215 -477 -278 -715 -25 -92 -42 -172 -71 -330 -3 -14 -7 -47
-11 -75 -3 -27 -8 -57 -9 -66 -11 -57 -20 -245 -20 -424 0 -257 11 -400 46
-605 170 -982 746 -1835 1608 -2377 109 -69 329 -185 431 -228 36 -15 84 -36
107 -46 84 -37 397 -136 483 -153 14 -3 59 -12 100 -21 41 -9 84 -18 95 -20
33 -6 97 -16 140 -21 22 -3 51 -7 65 -10 158 -25 682 -25 842 1 13 2 43 6 68
9 25 3 72 11 105 17 33 5 74 12 90 15 163 28 490 128 679 209 933 398 1647
1175 1963 2135 34 103 101 360 108 412 2 15 6 35 9 45 3 10 8 43 11 73 4 30 8
57 10 60 2 3 6 39 10 80 4 41 9 89 12 105 8 56 10 540 2 605 -4 36 -10 90 -13
120 -17 151 -41 285 -81 440 -19 74 -37 144 -40 154 -41 169 -201 539 -320
743 -363 620 -892 1109 -1528 1413 -297 142 -640 249 -947 296 -25 3 -52 8
-60 9 -8 2 -44 6 -80 10 -36 4 -81 10 -100 12 -42 5 -537 13 -542 8z m512
-298 c19 -3 60 -8 91 -12 31 -3 65 -7 75 -9 11 -2 42 -7 69 -10 179 -24 597
-146 720 -210 17 -9 34 -16 38 -16 12 0 242 -116 322 -163 129 -74 337 -218
430 -297 98 -84 252 -230 321 -305 43 -48 84 -93 89 -99 22 -23 144 -184 191
-251 230 -327 397 -704 493 -1117 11 -46 23 -106 27 -134 3 -27 8 -51 9 -54 3
-5 7 -33 20 -130 26 -203 26 -622 0 -781 -2 -13 -6 -42 -10 -64 -63 -439 -211
-847 -446 -1230 -71 -115 -88 -135 -129 -140 -183 -24 -564 -24 -686 -1 -12 3
-39 7 -60 10 -49 8 -144 33 -214 55 -240 79 -411 224 -522 445 -36 71 -83 191
-93 236 -1 8 -8 33 -14 55 -5 22 -13 56 -16 75 -3 19 -8 46 -10 60 -11 54 -13
67 -20 130 -3 36 -9 81 -11 100 -6 46 -6 335 0 380 5 36 13 98 21 161 6 48 32
159 56 244 78 268 233 552 430 789 91 111 106 153 75 214 -21 40 -57 58 -226
115 -299 102 -538 142 -830 142 -137 -1 -305 -11 -320 -20 -3 -2 -26 -6 -50
-10 -258 -37 -616 -179 -930 -370 -83 -50 -338 -216 -365 -238 -11 -9 -159
-114 -192 -137 -11 -8 -153 -112 -315 -231 -437 -322 -641 -461 -862 -589
-200 -115 -321 -182 -430 -238 -172 -88 -183 -92 -183 -78 -1 18 -15 129 -19
151 -25 125 -24 600 2 770 2 17 6 44 8 60 63 478 269 992 564 1405 141 196
352 429 509 560 36 30 70 60 77 66 55 51 313 230 421 292 215 124 612 287 795
328 11 2 28 6 38 8 45 12 262 55 302 61 54 8 80 10 185 20 44 4 81 8 83 10 5
5 452 -3 492 -8z m403 -2125 c32 -2 57 -7 55 -11 -2 -4 -37 -36 -78 -71 -82
-69 -311 -299 -375 -375 -325 -389 -543 -783 -699 -1263 -32 -99 -85 -302
-100 -387 -40 -218 -56 -363 -61 -557 -2 -68 -4 -131 -4 -141 -1 -15 -8 -14
-58 12 -351 176 -757 294 -1133 328 -166 15 -583 9 -700 -11 -14 -3 -47 -7
-75 -11 -27 -3 -108 -17 -179 -31 l-129 -26 -19 24 c-9 12 -18 26 -18 30 0 4
-16 40 -35 80 -67 138 -191 490 -183 522 2 7 91 58 198 113 494 254 875 498
1425 909 593 444 857 610 1166 730 76 29 225 77 284 90 38 9 250 43 285 47 51
5 365 4 433 -1z m139 -614 c2 -6 -5 -39 -17 -72 -29 -84 -73 -258 -101 -406
-2 -8 -6 -35 -9 -60 -3 -25 -12 -90 -19 -145 -13 -97 -15 -517 -3 -575 3 -14
8 -50 12 -80 21 -183 93 -434 169 -595 57 -122 104 -191 179 -266 260 -262
647 -404 1092 -401 96 1 235 11 248 19 4 2 7 -1 7 -8 0 -13 -180 -196 -280
-284 -79 -70 -228 -184 -330 -252 -100 -67 -246 -153 -260 -153 -30 0 -334
113 -487 181 -24 11 -64 28 -90 40 -67 30 -344 168 -428 214 -246 134 -449
259 -625 387 l-115 84 0 179 c1 207 7 281 36 460 43 267 142 571 262 813 167
334 414 657 683 890 50 43 69 51 76 30z m-2837 -2332 c94 -7 155 -15 245 -30
19 -3 46 -8 60 -10 90 -15 241 -56 445 -123 292 -95 502 -188 900 -398 425
-224 787 -399 1000 -483 93 -37 322 -116 337 -117 3 0 9 -3 13 -7 7 -7 -180
-66 -265 -83 -162 -33 -224 -44 -270 -50 -30 -4 -66 -9 -80 -10 -190 -25 -634
-26 -765 -1 -20 4 -65 10 -140 21 -74 11 -110 17 -116 21 -3 2 -21 6 -40 9
-62 10 -290 76 -397 115 -328 117 -650 298 -927 519 -120 96 -354 322 -432
416 -105 126 -152 190 -145 197 18 18 401 28 577 14z"/>
</g>
</svg>
